<?xml version="1.0" standalone="no"?>
<!DOCTYPE svg PUBLIC "-//W3C//DTD SVG 20010904//EN"
 "http://www.w3.org/TR/2001/REC-SVG-20010904/DTD/svg10.dtd">
<svg version="1.0" xmlns="http://www.w3.org/2000/svg"
 width="600.000000pt" height="600.000000pt" viewBox="0 0 600.000000 600.000000"
 preserveAspectRatio="xMidYMid meet">
<metadata>
Created by potrace 1.11, written by Peter Selinger 2001-2013
</metadata>
<g transform="translate(0.000000,600.000000) scale(0.100000,-0.100000)"
fill="#000000" stroke="none">
<path d="M2825 5343 c-198 -17 -428 -70 -603 -139 -296 -115 -524 -265 -753
-493 -174 -175 -293 -336 -397 -538 -435 -847 -271 -1870 407 -2541 270 -267
616 -463 981 -556 197 -50 335 -67 541 -67 356 0 659 71 969 226 617 309 1041
873 1171 1560 31 159 37 474 14 656 -138 1089 -1082 1913 -2174 1897 -64 -1
-134 -3 -156 -5z m1428 -1451 l247 -248 -2 -635 -3 -636 -30 -49 c-19 -30 -49
-60 -79 -79 l-49 -30 -284 -3 -283 -3 0 621 0 620 -235 0 -235 0 0 -620 0
-620 -330 0 -330 0 0 600 0 600 -240 0 -240 0 0 -600 0 -600 -228 0 c-263 0
-300 7 -363 72 -72 75 -70 42 -67 914 l3 779 22 41 c24 46 72 90 118 110 24
11 257 13 1195 14 l1165 0 248 -248z"/>
<path d="M5656 2903 c-24 -287 -120 -621 -261 -908 -352 -715 -1028 -1248
-1798 -1419 -222 -50 -324 -60 -592 -61 -341 0 -540 31 -845 131 -834 274
-1492 963 -1728 1809 -35 123 -66 277 -77 375 -15 132 -25 105 -20 -50 16
-427 97 -755 280 -1126 268 -544 737 -994 1295 -1245 244 -110 558 -193 824
-220 153 -15 525 -6 666 16 150 23 371 79 513 131 139 50 386 170 497 240 676
431 1113 1097 1231 1875 12 78 22 216 26 332 6 201 1 259 -11 120z"/>
</g>
</svg>
