<?xml version="1.0" standalone="no"?>
<!DOCTYPE svg PUBLIC "-//W3C//DTD SVG 20010904//EN"
 "http://www.w3.org/TR/2001/REC-SVG-20010904/DTD/svg10.dtd">
<svg version="1.0" xmlns="http://www.w3.org/2000/svg"
 width="400.000000pt" height="400.000000pt" viewBox="0 0 400.000000 400.000000"
 preserveAspectRatio="xMidYMid meet">
<metadata>
Created by potrace 1.11, written by Peter Selinger 2001-2013
</metadata>
<g transform="translate(0.000000,400.000000) scale(0.100000,-0.100000)"
fill="#000000" stroke="none">
<path d="M1770 3384 c-472 -85 -869 -435 -1014 -891 -76 -242 -76 -544 0 -786
127 -399 452 -724 852 -851 145 -46 256 -59 441 -53 134 4 185 10 263 30 480
126 829 475 955 956 34 131 43 381 19 525 -47 273 -170 510 -366 706 -193 194
-431 318 -696 364 -109 19 -348 19 -454 0z m977 -856 l153 -153 0 -340 c-1
-187 -5 -359 -9 -383 -10 -53 -60 -108 -111 -122 -19 -5 -99 -10 -177 -10
l-143 0 0 370 0 370 -140 0 -140 0 0 -370 0 -370 -200 0 -200 0 0 360 0 360
-140 0 -140 0 0 -360 0 -360 -122 0 c-68 0 -139 5 -158 10 -47 13 -99 68 -111
116 -12 56 -11 842 2 902 12 60 57 107 114 121 22 5 333 9 705 10 l665 1 152
-152z"/>
<path d="M401 1917 c-3 -249 61 -515 179 -745 80 -156 171 -281 294 -403 495
-491 1236 -607 1854 -289 156 80 281 171 403 294 123 124 210 244 289 398 118
230 182 496 179 745 l-1 78 -19 -120 c-57 -363 -207 -658 -463 -910 -305 -300
-685 -456 -1116 -456 -431 0 -811 156 -1116 456 -256 252 -406 547 -463 910
l-19 120 -1 -78z"/>
</g>
</svg>
